<svg xmlns="http://www.w3.org/2000/svg" width="64" height="64" viewBox="0 0 64 64">
  <rect width="64" height="64" fill="#000" rx="8"/>
  <defs>
    <radialGradient id="glow" cx="50%" cy="50%" r="50%">
      <stop offset="0%" stop-color="#fff" stop-opacity="0.18"/>
      <stop offset="40%" stop-color="rgb(243,126,32)" stop-opacity="0.08"/>
      <stop offset="100%" stop-color="#000" stop-opacity="0"/>
    </radialGradient>
  </defs>
  <circle cx="56.96" cy="32.00" r="1.20" fill="rgba(243,160,80,0.500)"/>
  <circle cx="55.98" cy="30.79" r="1.16" fill="rgba(243,160,80,0.560)"/>
  <circle cx="54.71" cy="29.72" r="1.13" fill="rgba(243,160,80,0.617)"/>
  <circle cx="53.22" cy="28.83" r="1.10" fill="rgba(243,160,80,0.666)"/>
  <circle cx="51.62" cy="28.16" r="1.08" fill="rgba(243,160,80,0.705)"/>
  <circle cx="49.96" cy="27.73" r="1.07" fill="rgba(243,160,80,0.731)"/>
  <circle cx="48.34" cy="27.53" r="1.06" fill="rgba(243,160,80,0.743)"/>
  <circle cx="46.80" cy="27.59" r="1.07" fill="rgba(243,160,80,0.740)"/>
  <circle cx="45.43" cy="27.89" r="1.08" fill="rgba(243,160,80,0.722)"/>
  <circle cx="44.28" cy="28.43" r="1.09" fill="rgba(243,160,80,0.690)"/>
  <circle cx="43.41" cy="29.19" r="1.11" fill="rgba(243,160,80,0.646)"/>
  <circle cx="42.88" cy="30.16" r="1.14" fill="rgba(243,160,80,0.593)"/>
  <circle cx="42.76" cy="31.30" r="1.18" fill="rgba(243,160,80,0.534)"/>
  <circle cx="43.07" cy="32.55" r="1.22" fill="rgba(243,160,80,0.474)"/>
  <circle cx="43.86" cy="33.85" r="1.26" fill="rgba(243,160,80,0.414)"/>
  <circle cx="45.10" cy="35.11" r="1.29" fill="rgba(243,160,80,0.361)"/>
  <circle cx="46.74" cy="36.23" r="1.33" fill="rgba(243,160,80,0.315)"/>
  <circle cx="48.69" cy="37.10" r="1.35" fill="rgba(243,160,80,0.282)"/>
  <circle cx="50.78" cy="37.64" r="1.37" fill="rgba(243,160,80,0.262)"/>
  <circle cx="52.85" cy="37.79" r="1.38" fill="rgba(243,160,80,0.256)"/>
  <circle cx="54.70" cy="37.52" r="1.37" fill="rgba(243,160,80,0.266)"/>
  <circle cx="56.18" cy="36.87" r="1.35" fill="rgba(243,160,80,0.291)"/>
  <circle cx="57.18" cy="35.92" r="1.32" fill="rgba(243,160,80,0.328)"/>
  <circle cx="57.65" cy="34.75" r="1.28" fill="rgba(243,160,80,0.376)"/>
  <circle cx="57.59" cy="33.46" r="1.24" fill="rgba(243,160,80,0.432)"/>
  <circle cx="57.06" cy="32.17" r="1.21" fill="rgba(243,160,80,0.492)"/>
  <circle cx="53.68" cy="35.86" r="1.08" fill="rgba(243,160,80,0.720)"/>
  <circle cx="52.92" cy="34.63" r="1.05" fill="rgba(243,160,80,0.779)"/>
  <circle cx="51.91" cy="33.48" r="1.02" fill="rgba(243,160,80,0.830)"/>
  <circle cx="50.73" cy="32.45" r="1.01" fill="rgba(243,160,80,0.870)"/>
  <circle cx="49.43" cy="31.58" r="0.99" fill="rgba(243,160,80,0.897)"/>
  <circle cx="48.07" cy="30.91" r="0.99" fill="rgba(243,160,80,0.909)"/>
  <circle cx="46.72" cy="30.46" r="0.99" fill="rgba(243,160,80,0.906)"/>
  <circle cx="45.43" cy="30.26" r="1.00" fill="rgba(243,160,80,0.887)"/>
  <circle cx="44.25" cy="30.31" r="1.01" fill="rgba(243,160,80,0.854)"/>
  <circle cx="43.26" cy="30.62" r="1.03" fill="rgba(243,160,80,0.809)"/>
  <circle cx="42.50" cy="31.20" r="1.06" fill="rgba(243,160,80,0.754)"/>
  <circle cx="42.04" cy="32.04" r="1.09" fill="rgba(243,160,80,0.694)"/>
  <circle cx="41.93" cy="33.10" r="1.12" fill="rgba(243,160,80,0.631)"/>
  <circle cx="42.21" cy="34.34" r="1.16" fill="rgba(243,160,80,0.570)"/>
  <circle cx="42.89" cy="35.70" r="1.19" fill="rgba(243,160,80,0.514)"/>
  <circle cx="43.97" cy="37.07" r="1.22" fill="rgba(243,160,80,0.468)"/>
  <circle cx="45.37" cy="38.34" r="1.24" fill="rgba(243,160,80,0.433)"/>
  <circle cx="47.01" cy="39.41" r="1.26" fill="rgba(243,160,80,0.412)"/>
  <circle cx="48.74" cy="40.17" r="1.26" fill="rgba(243,160,80,0.407)"/>
  <circle cx="50.42" cy="40.55" r="1.25" fill="rgba(243,160,80,0.417)"/>
  <circle cx="51.90" cy="40.54" r="1.24" fill="rgba(243,160,80,0.442)"/>
  <circle cx="53.07" cy="40.13" r="1.21" fill="rgba(243,160,80,0.480)"/>
  <circle cx="53.85" cy="39.40" r="1.18" fill="rgba(243,160,80,0.530)"/>
  <circle cx="54.22" cy="38.41" r="1.15" fill="rgba(243,160,80,0.588)"/>
  <circle cx="54.17" cy="37.25" r="1.11" fill="rgba(243,160,80,0.650)"/>
  <circle cx="53.76" cy="36.02" r="1.08" fill="rgba(243,160,80,0.712)"/>
  <circle cx="49.90" cy="38.81" r="0.98" fill="rgba(243,160,80,0.927)"/>
  <circle cx="49.33" cy="37.60" r="0.96" fill="rgba(243,160,80,0.983)"/>
  <circle cx="48.56" cy="36.41" r="0.94" fill="rgba(243,160,80,1.029)"/>
  <circle cx="47.65" cy="35.30" r="0.93" fill="rgba(243,160,80,1.061)"/>
  <circle cx="46.64" cy="34.31" r="0.92" fill="rgba(243,160,80,1.077)"/>
  <circle cx="45.58" cy="33.49" r="0.92" fill="rgba(243,160,80,1.076)"/>
  <circle cx="44.51" cy="32.86" r="0.93" fill="rgba(243,160,80,1.058)"/>
  <circle cx="43.47" cy="32.47" r="0.94" fill="rgba(243,160,80,1.025)"/>
  <circle cx="42.52" cy="32.33" r="0.96" fill="rgba(243,160,80,0.978)"/>
  <circle cx="41.71" cy="32.47" r="0.98" fill="rgba(243,160,80,0.921)"/>
  <circle cx="41.08" cy="32.91" r="1.01" fill="rgba(243,160,80,0.856)"/>
  <circle cx="40.70" cy="33.64" r="1.04" fill="rgba(243,160,80,0.788)"/>
  <circle cx="40.61" cy="34.64" r="1.08" fill="rgba(243,160,80,0.722)"/>
  <circle cx="40.84" cy="35.87" r="1.11" fill="rgba(243,160,80,0.660)"/>
  <circle cx="41.41" cy="37.26" r="1.14" fill="rgba(243,160,80,0.608)"/>
  <circle cx="42.29" cy="38.70" r="1.16" fill="rgba(243,160,80,0.568)"/>
  <circle cx="43.43" cy="40.09" r="1.17" fill="rgba(243,160,80,0.543)"/>
  <circle cx="44.74" cy="41.29" r="1.18" fill="rgba(243,160,80,0.534)"/>
  <circle cx="46.11" cy="42.20" r="1.17" fill="rgba(243,160,80,0.543)"/>
  <circle cx="47.42" cy="42.74" r="1.16" fill="rgba(243,160,80,0.567)"/>
  <circle cx="48.55" cy="42.89" r="1.14" fill="rgba(243,160,80,0.607)"/>
  <circle cx="49.44" cy="42.64" r="1.11" fill="rgba(243,160,80,0.659)"/>
  <circle cx="50.03" cy="42.06" r="1.08" fill="rgba(243,160,80,0.720)"/>
  <circle cx="50.30" cy="41.20" r="1.04" fill="rgba(243,160,80,0.786)"/>
  <circle cx="50.27" cy="40.14" r="1.01" fill="rgba(243,160,80,0.854)"/>
  <circle cx="49.96" cy="38.97" r="0.98" fill="rgba(243,160,80,0.919)"/>
  <circle cx="45.86" cy="40.99" r="0.91" fill="rgba(243,160,80,1.107)"/>
  <circle cx="45.44" cy="39.80" r="0.89" fill="rgba(243,160,80,1.162)"/>
  <circle cx="44.89" cy="38.60" r="0.88" fill="rgba(243,160,80,1.203)"/>
  <circle cx="44.22" cy="37.44" r="0.87" fill="rgba(243,160,80,1.227)"/>
  <circle cx="43.48" cy="36.38" r="0.87" fill="rgba(243,160,80,1.233)"/>
  <circle cx="42.70" cy="35.46" r="0.87" fill="rgba(243,160,80,1.221)"/>
  <circle cx="41.89" cy="34.72" r="0.88" fill="rgba(243,160,80,1.191)"/>
  <circle cx="41.11" cy="34.20" r="0.90" fill="rgba(243,160,80,1.145)"/>
  <circle cx="40.39" cy="33.93" r="0.92" fill="rgba(243,160,80,1.086)"/>
  <circle cx="39.77" cy="33.95" r="0.94" fill="rgba(243,160,80,1.018)"/>
  <circle cx="39.29" cy="34.28" r="0.97" fill="rgba(243,160,80,0.944)"/>
  <circle cx="38.99" cy="34.92" r="1.00" fill="rgba(243,160,80,0.871)"/>
  <circle cx="38.92" cy="35.88" r="1.04" fill="rgba(243,160,80,0.801)"/>
  <circle cx="39.10" cy="37.09" r="1.07" fill="rgba(243,160,80,0.739)"/>
  <circle cx="39.54" cy="38.50" r="1.09" fill="rgba(243,160,80,0.690)"/>
  <circle cx="40.21" cy="40.00" r="1.11" fill="rgba(243,160,80,0.656)"/>
  <circle cx="41.08" cy="41.46" r="1.12" fill="rgba(243,160,80,0.639)"/>
  <circle cx="42.07" cy="42.74" r="1.12" fill="rgba(243,160,80,0.641)"/>
  <circle cx="43.09" cy="43.75" r="1.11" fill="rgba(243,160,80,0.661)"/>
  <circle cx="44.05" cy="44.39" r="1.09" fill="rgba(243,160,80,0.698)"/>
  <circle cx="44.88" cy="44.64" r="1.06" fill="rgba(243,160,80,0.750)"/>
  <circle cx="45.53" cy="44.50" r="1.03" fill="rgba(243,160,80,0.814)"/>
  <circle cx="45.95" cy="44.02" r="1.00" fill="rgba(243,160,80,0.885)"/>
  <circle cx="46.15" cy="43.25" r="0.97" fill="rgba(243,160,80,0.959)"/>
  <circle cx="46.12" cy="42.27" r="0.94" fill="rgba(243,160,80,1.032)"/>
  <circle cx="45.90" cy="41.15" r="0.91" fill="rgba(243,160,80,1.099)"/>
  <circle cx="41.69" cy="42.51" r="0.86" fill="rgba(243,160,80,1.249)"/>
  <circle cx="41.41" cy="41.33" r="0.84" fill="rgba(243,160,80,1.303)"/>
  <circle cx="41.04" cy="40.13" r="0.83" fill="rgba(243,160,80,1.340)"/>
  <circle cx="40.60" cy="38.96" r="0.83" fill="rgba(243,160,80,1.359)"/>
  <circle cx="40.10" cy="37.86" r="0.83" fill="rgba(243,160,80,1.357)"/>
  <circle cx="39.57" cy="36.88" r="0.83" fill="rgba(243,160,80,1.336)"/>
  <circle cx="39.02" cy="36.07" r="0.85" fill="rgba(243,160,80,1.296)"/>
  <circle cx="38.49" cy="35.46" r="0.86" fill="rgba(243,160,80,1.240)"/>
  <circle cx="37.99" cy="35.10" r="0.89" fill="rgba(243,160,80,1.172)"/>
  <circle cx="37.56" cy="35.04" r="0.91" fill="rgba(243,160,80,1.095)"/>
  <circle cx="37.23" cy="35.29" r="0.95" fill="rgba(243,160,80,1.014)"/>
  <circle cx="37.02" cy="35.88" r="0.98" fill="rgba(243,160,80,0.936)"/>
  <circle cx="36.97" cy="36.80" r="1.01" fill="rgba(243,160,80,0.863)"/>
  <circle cx="37.10" cy="38.00" r="1.04" fill="rgba(243,160,80,0.801)"/>
  <circle cx="37.40" cy="39.42" r="1.06" fill="rgba(243,160,80,0.754)"/>
  <circle cx="37.87" cy="40.95" r="1.07" fill="rgba(243,160,80,0.725)"/>
  <circle cx="38.47" cy="42.45" r="1.08" fill="rgba(243,160,80,0.715)"/>
  <circle cx="39.14" cy="43.79" r="1.07" fill="rgba(243,160,80,0.725)"/>
  <circle cx="39.83" cy="44.86" r="1.06" fill="rgba(243,160,80,0.755)"/>
  <circle cx="40.48" cy="45.56" r="1.04" fill="rgba(243,160,80,0.802)"/>
  <circle cx="41.04" cy="45.87" r="1.01" fill="rgba(243,160,80,0.864)"/>
  <circle cx="41.47" cy="45.80" r="0.98" fill="rgba(243,160,80,0.937)"/>
  <circle cx="41.75" cy="45.38" r="0.94" fill="rgba(243,160,80,1.015)"/>
  <circle cx="41.88" cy="44.67" r="0.91" fill="rgba(243,160,80,1.096)"/>
  <circle cx="41.86" cy="43.74" r="0.89" fill="rgba(243,160,80,1.173)"/>
  <circle cx="41.71" cy="42.66" r="0.86" fill="rgba(243,160,80,1.241)"/>
  <circle cx="37.46" cy="43.44" r="0.83" fill="rgba(243,160,80,1.345)"/>
  <circle cx="37.31" cy="42.28" r="0.82" fill="rgba(243,160,80,1.398)"/>
  <circle cx="37.11" cy="41.08" r="0.81" fill="rgba(243,160,80,1.432)"/>
  <circle cx="36.86" cy="39.89" r="0.80" fill="rgba(243,160,80,1.447)"/>
  <circle cx="36.59" cy="38.78" r="0.80" fill="rgba(243,160,80,1.440)"/>
  <circle cx="36.30" cy="37.77" r="0.81" fill="rgba(243,160,80,1.413)"/>
  <circle cx="35.99" cy="36.91" r="0.83" fill="rgba(243,160,80,1.367)"/>
  <circle cx="35.70" cy="36.26" r="0.84" fill="rgba(243,160,80,1.304)"/>
  <circle cx="35.42" cy="35.85" r="0.87" fill="rgba(243,160,80,1.229)"/>
  <circle cx="35.18" cy="35.73" r="0.90" fill="rgba(243,160,80,1.147)"/>
  <circle cx="34.99" cy="35.94" r="0.93" fill="rgba(243,160,80,1.062)"/>
  <circle cx="34.88" cy="36.49" r="0.96" fill="rgba(243,160,80,0.979)"/>
  <circle cx="34.85" cy="37.38" r="0.99" fill="rgba(243,160,80,0.905)"/>
  <circle cx="34.92" cy="38.58" r="1.02" fill="rgba(243,160,80,0.843)"/>
  <circle cx="35.09" cy="40.01" r="1.04" fill="rgba(243,160,80,0.798)"/>
  <circle cx="35.35" cy="41.56" r="1.05" fill="rgba(243,160,80,0.772)"/>
  <circle cx="35.69" cy="43.08" r="1.05" fill="rgba(243,160,80,0.766)"/>
  <circle cx="36.06" cy="44.45" r="1.05" fill="rgba(243,160,80,0.782)"/>
  <circle cx="36.44" cy="45.55" r="1.03" fill="rgba(243,160,80,0.818)"/>
  <circle cx="36.80" cy="46.29" r="1.00" fill="rgba(243,160,80,0.872)"/>
  <circle cx="37.10" cy="46.64" r="0.98" fill="rgba(243,160,80,0.940)"/>
  <circle cx="37.34" cy="46.60" r="0.94" fill="rgba(243,160,80,1.019)"/>
  <circle cx="37.49" cy="46.22" r="0.91" fill="rgba(243,160,80,1.103)"/>
  <circle cx="37.56" cy="45.54" r="0.88" fill="rgba(243,160,80,1.188)"/>
  <circle cx="37.55" cy="44.65" r="0.86" fill="rgba(243,160,80,1.267)"/>
  <circle cx="37.47" cy="43.59" r="0.83" fill="rgba(243,160,80,1.337)"/>
  <circle cx="33.21" cy="43.84" r="0.82" fill="rgba(243,160,80,1.388)"/>
  <circle cx="33.17" cy="42.68" r="0.80" fill="rgba(243,160,80,1.440)"/>
  <circle cx="33.13" cy="41.49" r="0.80" fill="rgba(243,160,80,1.474)"/>
  <circle cx="33.08" cy="40.30" r="0.80" fill="rgba(243,160,80,1.487)"/>
  <circle cx="33.02" cy="39.17" r="0.80" fill="rgba(243,160,80,1.478)"/>
  <circle cx="32.95" cy="38.15" r="0.80" fill="rgba(243,160,80,1.448)"/>
  <circle cx="32.89" cy="37.28" r="0.82" fill="rgba(243,160,80,1.398)"/>
  <circle cx="32.82" cy="36.60" r="0.84" fill="rgba(243,160,80,1.333)"/>
  <circle cx="32.76" cy="36.17" r="0.86" fill="rgba(243,160,80,1.255)"/>
  <circle cx="32.71" cy="36.04" r="0.89" fill="rgba(243,160,80,1.170)"/>
  <circle cx="32.67" cy="36.22" r="0.92" fill="rgba(243,160,80,1.083)"/>
  <circle cx="32.64" cy="36.76" r="0.95" fill="rgba(243,160,80,0.999)"/>
  <circle cx="32.63" cy="37.64" r="0.98" fill="rgba(243,160,80,0.924)"/>
  <circle cx="32.65" cy="38.84" r="1.01" fill="rgba(243,160,80,0.862)"/>
  <circle cx="32.69" cy="40.27" r="1.03" fill="rgba(243,160,80,0.817)"/>
  <circle cx="32.74" cy="41.82" r="1.04" fill="rgba(243,160,80,0.793)"/>
  <circle cx="32.82" cy="43.36" r="1.04" fill="rgba(243,160,80,0.789)"/>
  <circle cx="32.90" cy="44.74" r="1.03" fill="rgba(243,160,80,0.808)"/>
  <circle cx="32.98" cy="45.85" r="1.02" fill="rgba(243,160,80,0.846)"/>
  <circle cx="33.06" cy="46.60" r="0.99" fill="rgba(243,160,80,0.903)"/>
  <circle cx="33.13" cy="46.96" r="0.96" fill="rgba(243,160,80,0.975)"/>
  <circle cx="33.18" cy="46.94" r="0.93" fill="rgba(243,160,80,1.056)"/>
  <circle cx="33.21" cy="46.58" r="0.90" fill="rgba(243,160,80,1.143)"/>
  <circle cx="33.23" cy="45.92" r="0.87" fill="rgba(243,160,80,1.229)"/>
  <circle cx="33.23" cy="45.03" r="0.84" fill="rgba(243,160,80,1.310)"/>
  <circle cx="33.21" cy="43.99" r="0.82" fill="rgba(243,160,80,1.380)"/>
  <circle cx="28.95" cy="43.73" r="0.82" fill="rgba(243,160,80,1.376)"/>
  <circle cx="29.03" cy="42.57" r="0.81" fill="rgba(243,160,80,1.429)"/>
  <circle cx="29.14" cy="41.37" r="0.80" fill="rgba(243,160,80,1.463)"/>
  <circle cx="29.28" cy="40.19" r="0.80" fill="rgba(243,160,80,1.476)"/>
  <circle cx="29.43" cy="39.06" r="0.80" fill="rgba(243,160,80,1.468)"/>
  <circle cx="29.59" cy="38.04" r="0.80" fill="rgba(243,160,80,1.438)"/>
  <circle cx="29.76" cy="37.18" r="0.82" fill="rgba(243,160,80,1.390)"/>
  <circle cx="29.93" cy="36.51" r="0.84" fill="rgba(243,160,80,1.325)"/>
  <circle cx="30.08" cy="36.08" r="0.86" fill="rgba(243,160,80,1.248)"/>
  <circle cx="30.21" cy="35.95" r="0.89" fill="rgba(243,160,80,1.163)"/>
  <circle cx="30.32" cy="36.14" r="0.92" fill="rgba(243,160,80,1.077)"/>
  <circle cx="30.38" cy="36.69" r="0.95" fill="rgba(243,160,80,0.994)"/>
  <circle cx="30.40" cy="37.57" r="0.98" fill="rgba(243,160,80,0.919)"/>
  <circle cx="30.36" cy="38.77" r="1.01" fill="rgba(243,160,80,0.857)"/>
  <circle cx="30.26" cy="40.20" r="1.03" fill="rgba(243,160,80,0.812)"/>
  <circle cx="30.12" cy="41.75" r="1.04" fill="rgba(243,160,80,0.787)"/>
  <circle cx="29.93" cy="43.28" r="1.05" fill="rgba(243,160,80,0.783)"/>
  <circle cx="29.72" cy="44.66" r="1.04" fill="rgba(243,160,80,0.800)"/>
  <circle cx="29.51" cy="45.76" r="1.02" fill="rgba(243,160,80,0.838)"/>
  <circle cx="29.31" cy="46.51" r="0.99" fill="rgba(243,160,80,0.894)"/>
  <circle cx="29.15" cy="46.87" r="0.96" fill="rgba(243,160,80,0.965)"/>
  <circle cx="29.02" cy="46.85" r="0.93" fill="rgba(243,160,80,1.046)"/>
  <circle cx="28.93" cy="46.48" r="0.90" fill="rgba(243,160,80,1.132)"/>
  <circle cx="28.89" cy="45.81" r="0.87" fill="rgba(243,160,80,1.218)"/>
  <circle cx="28.90" cy="44.93" r="0.85" fill="rgba(243,160,80,1.298)"/>
  <circle cx="28.94" cy="43.88" r="0.83" fill="rgba(243,160,80,1.368)"/>
  <circle cx="24.71" cy="43.10" r="0.84" fill="rgba(243,160,80,1.309)"/>
  <circle cx="24.91" cy="41.94" r="0.83" fill="rgba(243,160,80,1.363)"/>
  <circle cx="25.18" cy="40.73" r="0.82" fill="rgba(243,160,80,1.398)"/>
  <circle cx="25.51" cy="39.55" r="0.81" fill="rgba(243,160,80,1.414)"/>
  <circle cx="25.88" cy="38.44" r="0.81" fill="rgba(243,160,80,1.410)"/>
  <circle cx="26.27" cy="37.44" r="0.82" fill="rgba(243,160,80,1.385)"/>
  <circle cx="26.68" cy="36.60" r="0.83" fill="rgba(243,160,80,1.341)"/>
  <circle cx="27.08" cy="35.97" r="0.85" fill="rgba(243,160,80,1.280)"/>
  <circle cx="27.45" cy="35.58" r="0.88" fill="rgba(243,160,80,1.208)"/>
  <circle cx="27.77" cy="35.48" r="0.90" fill="rgba(243,160,80,1.127)"/>
  <circle cx="28.02" cy="35.70" r="0.93" fill="rgba(243,160,80,1.044)"/>
  <circle cx="28.18" cy="36.27" r="0.97" fill="rgba(243,160,80,0.963)"/>
  <circle cx="28.22" cy="37.17" r="1.00" fill="rgba(243,160,80,0.890)"/>
  <circle cx="28.12" cy="38.37" r="1.02" fill="rgba(243,160,80,0.828)"/>
  <circle cx="27.89" cy="39.80" r="1.05" fill="rgba(243,160,80,0.782)"/>
  <circle cx="27.54" cy="41.34" r="1.06" fill="rgba(243,160,80,0.754)"/>
  <circle cx="27.09" cy="42.85" r="1.06" fill="rgba(243,160,80,0.747)"/>
  <circle cx="26.59" cy="44.21" r="1.06" fill="rgba(243,160,80,0.761)"/>
  <circle cx="26.07" cy="45.30" r="1.04" fill="rgba(243,160,80,0.795)"/>
  <circle cx="25.59" cy="46.02" r="1.02" fill="rgba(243,160,80,0.846)"/>
  <circle cx="25.18" cy="46.36" r="0.99" fill="rgba(243,160,80,0.912)"/>
  <circle cx="24.87" cy="46.31" r="0.96" fill="rgba(243,160,80,0.989)"/>
  <circle cx="24.66" cy="45.92" r="0.92" fill="rgba(243,160,80,1.071)"/>
  <circle cx="24.57" cy="45.23" r="0.89" fill="rgba(243,160,80,1.154)"/>
  <circle cx="24.58" cy="44.32" r="0.87" fill="rgba(243,160,80,1.232)"/>
  <circle cx="24.68" cy="43.25" r="0.85" fill="rgba(243,160,80,1.301)"/>
  <circle cx="20.49" cy="41.93" r="0.88" fill="rgba(243,160,80,1.193)"/>
  <circle cx="20.83" cy="40.74" r="0.86" fill="rgba(243,160,80,1.247)"/>
  <circle cx="21.28" cy="39.54" r="0.85" fill="rgba(243,160,80,1.286)"/>
  <circle cx="21.81" cy="38.37" r="0.84" fill="rgba(243,160,80,1.306)"/>
  <circle cx="22.41" cy="37.29" r="0.84" fill="rgba(243,160,80,1.308)"/>
  <circle cx="23.05" cy="36.33" r="0.85" fill="rgba(243,160,80,1.290)"/>
  <circle cx="23.71" cy="35.55" r="0.86" fill="rgba(243,160,80,1.254)"/>
  <circle cx="24.35" cy="34.97" r="0.88" fill="rgba(243,160,80,1.202)"/>
  <circle cx="24.94" cy="34.65" r="0.90" fill="rgba(243,160,80,1.138)"/>
  <circle cx="25.46" cy="34.61" r="0.93" fill="rgba(243,160,80,1.064)"/>
  <circle cx="25.85" cy="34.90" r="0.96" fill="rgba(243,160,80,0.987)"/>
  <circle cx="26.10" cy="35.51" r="0.99" fill="rgba(243,160,80,0.910)"/>
  <circle cx="26.16" cy="36.44" r="1.02" fill="rgba(243,160,80,0.838)"/>
  <circle cx="26.01" cy="37.65" r="1.05" fill="rgba(243,160,80,0.777)"/>
  <circle cx="25.65" cy="39.07" r="1.07" fill="rgba(243,160,80,0.729)"/>
  <circle cx="25.09" cy="40.58" r="1.09" fill="rgba(243,160,80,0.698)"/>
  <circle cx="24.37" cy="42.07" r="1.09" fill="rgba(243,160,80,0.685)"/>
  <circle cx="23.56" cy="43.39" r="1.09" fill="rgba(243,160,80,0.692)"/>
  <circle cx="22.73" cy="44.43" r="1.08" fill="rgba(243,160,80,0.718)"/>
  <circle cx="21.95" cy="45.11" r="1.06" fill="rgba(243,160,80,0.761)"/>
  <circle cx="21.28" cy="45.40" r="1.03" fill="rgba(243,160,80,0.819)"/>
  <circle cx="20.76" cy="45.30" r="1.00" fill="rgba(243,160,80,0.888)"/>
  <circle cx="20.42" cy="44.86" r="0.97" fill="rgba(243,160,80,0.964)"/>
  <circle cx="20.26" cy="44.13" r="0.93" fill="rgba(243,160,80,1.042)"/>
  <circle cx="20.28" cy="43.18" r="0.91" fill="rgba(243,160,80,1.117)"/>
  <circle cx="20.46" cy="42.08" r="0.88" fill="rgba(243,160,80,1.184)"/>
  <circle cx="16.37" cy="40.14" r="0.94" fill="rgba(243,160,80,1.033)"/>
  <circle cx="16.85" cy="38.93" r="0.92" fill="rgba(243,160,80,1.088)"/>
  <circle cx="17.49" cy="37.73" r="0.90" fill="rgba(243,160,80,1.131)"/>
  <circle cx="18.26" cy="36.59" r="0.89" fill="rgba(243,160,80,1.159)"/>
  <circle cx="19.11" cy="35.56" r="0.89" fill="rgba(243,160,80,1.169)"/>
  <circle cx="20.02" cy="34.68" r="0.89" fill="rgba(243,160,80,1.161)"/>
  <circle cx="20.93" cy="33.98" r="0.90" fill="rgba(243,160,80,1.136)"/>
  <circle cx="21.82" cy="33.51" r="0.91" fill="rgba(243,160,80,1.096)"/>
  <circle cx="22.64" cy="33.29" r="0.93" fill="rgba(243,160,80,1.042)"/>
  <circle cx="23.35" cy="33.36" r="0.96" fill="rgba(243,160,80,0.978)"/>
  <circle cx="23.89" cy="33.73" r="0.99" fill="rgba(243,160,80,0.908)"/>
  <circle cx="24.23" cy="34.41" r="1.02" fill="rgba(243,160,80,0.837)"/>
  <circle cx="24.31" cy="35.38" r="1.05" fill="rgba(243,160,80,0.768)"/>
  <circle cx="24.11" cy="36.60" r="1.08" fill="rgba(243,160,80,0.707)"/>
  <circle cx="23.61" cy="38.00" r="1.11" fill="rgba(243,160,80,0.656)"/>
  <circle cx="22.85" cy="39.48" r="1.13" fill="rgba(243,160,80,0.620)"/>
  <circle cx="21.86" cy="40.91" r="1.14" fill="rgba(243,160,80,0.600)"/>
  <circle cx="20.73" cy="42.16" r="1.14" fill="rgba(243,160,80,0.597)"/>
  <circle cx="19.56" cy="43.13" r="1.13" fill="rgba(243,160,80,0.612)"/>
  <circle cx="18.46" cy="43.74" r="1.12" fill="rgba(243,160,80,0.644)"/>
  <circle cx="17.50" cy="43.95" r="1.09" fill="rgba(243,160,80,0.691)"/>
  <circle cx="16.75" cy="43.77" r="1.06" fill="rgba(243,160,80,0.750)"/>
  <circle cx="16.26" cy="43.25" r="1.03" fill="rgba(243,160,80,0.817)"/>
  <circle cx="16.03" cy="42.44" r="1.00" fill="rgba(243,160,80,0.888)"/>
  <circle cx="16.06" cy="41.43" r="0.97" fill="rgba(243,160,80,0.959)"/>
  <circle cx="16.32" cy="40.29" r="0.94" fill="rgba(243,160,80,1.025)"/>
  <circle cx="12.41" cy="37.63" r="1.02" fill="rgba(243,160,80,0.840)"/>
  <circle cx="13.07" cy="36.41" r="0.99" fill="rgba(243,160,80,0.897)"/>
  <circle cx="13.94" cy="35.23" r="0.97" fill="rgba(243,160,80,0.945)"/>
  <circle cx="14.96" cy="34.15" r="0.96" fill="rgba(243,160,80,0.980)"/>
  <circle cx="16.09" cy="33.21" r="0.95" fill="rgba(243,160,80,1.001)"/>
  <circle cx="17.28" cy="32.44" r="0.95" fill="rgba(243,160,80,1.006)"/>
  <circle cx="18.48" cy="31.89" r="0.95" fill="rgba(243,160,80,0.994)"/>
  <circle cx="19.62" cy="31.57" r="0.96" fill="rgba(243,160,80,0.967)"/>
  <circle cx="20.67" cy="31.50" r="0.98" fill="rgba(243,160,80,0.926)"/>
  <circle cx="21.57" cy="31.72" r="1.00" fill="rgba(243,160,80,0.873)"/>
  <circle cx="22.25" cy="32.21" r="1.03" fill="rgba(243,160,80,0.813)"/>
  <circle cx="22.67" cy="32.98" r="1.06" fill="rgba(243,160,80,0.748)"/>
  <circle cx="22.77" cy="34.01" r="1.09" fill="rgba(243,160,80,0.683)"/>
  <circle cx="22.51" cy="35.24" r="1.13" fill="rgba(243,160,80,0.622)"/>
  <circle cx="21.89" cy="36.62" r="1.16" fill="rgba(243,160,80,0.569)"/>
  <circle cx="20.93" cy="38.03" r="1.18" fill="rgba(243,160,80,0.526)"/>
  <circle cx="19.67" cy="39.38" r="1.20" fill="rgba(243,160,80,0.497)"/>
  <circle cx="18.22" cy="40.53" r="1.21" fill="rgba(243,160,80,0.483)"/>
  <circle cx="16.69" cy="41.38" r="1.21" fill="rgba(243,160,80,0.485)"/>
  <circle cx="15.23" cy="41.86" r="1.20" fill="rgba(243,160,80,0.504)"/>
  <circle cx="13.94" cy="41.94" r="1.18" fill="rgba(243,160,80,0.537)"/>
  <circle cx="12.94" cy="41.64" r="1.15" fill="rgba(243,160,80,0.584)"/>
  <circle cx="12.27" cy="41.00" r="1.12" fill="rgba(243,160,80,0.640)"/>
  <circle cx="11.96" cy="40.09" r="1.08" fill="rgba(243,160,80,0.703)"/>
  <circle cx="11.99" cy="38.99" r="1.05" fill="rgba(243,160,80,0.768)"/>
  <circle cx="12.35" cy="37.80" r="1.02" fill="rgba(243,160,80,0.832)"/>
  <circle cx="8.82" cy="34.30" r="1.13" fill="rgba(243,160,80,0.626)"/>
  <circle cx="9.67" cy="33.08" r="1.09" fill="rgba(243,160,80,0.685)"/>
  <circle cx="10.79" cy="31.95" r="1.07" fill="rgba(243,160,80,0.738)"/>
  <circle cx="12.10" cy="30.98" r="1.05" fill="rgba(243,160,80,0.782)"/>
  <circle cx="13.54" cy="30.19" r="1.03" fill="rgba(243,160,80,0.815)"/>
  <circle cx="15.02" cy="29.61" r="1.02" fill="rgba(243,160,80,0.833)"/>
  <circle cx="16.49" cy="29.26" r="1.02" fill="rgba(243,160,80,0.836)"/>
  <circle cx="17.89" cy="29.15" r="1.03" fill="rgba(243,160,80,0.824)"/>
  <circle cx="19.16" cy="29.30" r="1.04" fill="rgba(243,160,80,0.797)"/>
  <circle cx="20.23" cy="29.71" r="1.06" fill="rgba(243,160,80,0.758)"/>
  <circle cx="21.04" cy="30.36" r="1.08" fill="rgba(243,160,80,0.708)"/>
  <circle cx="21.53" cy="31.25" r="1.11" fill="rgba(243,160,80,0.651)"/>
  <circle cx="21.64" cy="32.35" r="1.15" fill="rgba(243,160,80,0.590)"/>
  <circle cx="21.35" cy="33.60" r="1.18" fill="rgba(243,160,80,0.529)"/>
  <circle cx="20.62" cy="34.93" r="1.22" fill="rgba(243,160,80,0.471)"/>
  <circle cx="19.46" cy="36.25" r="1.25" fill="rgba(243,160,80,0.422)"/>
  <circle cx="17.95" cy="37.47" r="1.28" fill="rgba(243,160,80,0.382)"/>
  <circle cx="16.18" cy="38.46" r="1.30" fill="rgba(243,160,80,0.356)"/>
  <circle cx="14.28" cy="39.13" r="1.31" fill="rgba(243,160,80,0.344)"/>
  <circle cx="12.44" cy="39.43" r="1.30" fill="rgba(243,160,80,0.348)"/>
  <circle cx="10.80" cy="39.31" r="1.29" fill="rgba(243,160,80,0.366)"/>
  <circle cx="9.50" cy="38.82" r="1.27" fill="rgba(243,160,80,0.399)"/>
  <circle cx="8.63" cy="37.99" r="1.24" fill="rgba(243,160,80,0.443)"/>
  <circle cx="8.22" cy="36.93" r="1.20" fill="rgba(243,160,80,0.497)"/>
  <circle cx="8.26" cy="35.73" r="1.17" fill="rgba(243,160,80,0.556)"/>
  <circle cx="8.73" cy="34.47" r="1.13" fill="rgba(243,160,80,0.618)"/>
  <circle cx="5.87" cy="30.02" r="1.26" fill="rgba(243,160,80,0.404)"/>
  <circle cx="6.94" cy="28.83" r="1.22" fill="rgba(243,160,80,0.465)"/>
  <circle cx="8.34" cy="27.81" r="1.19" fill="rgba(243,160,80,0.524)"/>
  <circle cx="9.96" cy="27.02" r="1.15" fill="rgba(243,160,80,0.577)"/>
  <circle cx="11.69" cy="26.46" r="1.13" fill="rgba(243,160,80,0.621)"/>
  <circle cx="13.47" cy="26.16" r="1.11" fill="rgba(243,160,80,0.654)"/>
  <circle cx="15.20" cy="26.11" r="1.10" fill="rgba(243,160,80,0.672)"/>
  <circle cx="16.83" cy="26.30" r="1.10" fill="rgba(243,160,80,0.676)"/>
  <circle cx="18.28" cy="26.73" r="1.11" fill="rgba(243,160,80,0.664)"/>
  <circle cx="19.48" cy="27.39" r="1.12" fill="rgba(243,160,80,0.638)"/>
  <circle cx="20.39" cy="28.25" r="1.14" fill="rgba(243,160,80,0.599)"/>
  <circle cx="20.94" cy="29.28" r="1.17" fill="rgba(243,160,80,0.549)"/>
  <circle cx="21.07" cy="30.46" r="1.20" fill="rgba(243,160,80,0.492)"/>
  <circle cx="20.74" cy="31.71" r="1.24" fill="rgba(243,160,80,0.431)"/>
  <circle cx="19.92" cy="32.98" r="1.29" fill="rgba(243,160,80,0.371)"/>
  <circle cx="18.62" cy="34.18" r="1.33" fill="rgba(243,160,80,0.314)"/>
  <circle cx="16.89" cy="35.22" r="1.37" fill="rgba(243,160,80,0.264)"/>
  <circle cx="14.83" cy="35.98" r="1.40" fill="rgba(243,160,80,0.225)"/>
  <circle cx="12.59" cy="36.39" r="1.43" fill="rgba(243,160,80,0.198)"/>
  <circle cx="10.37" cy="36.40" r="1.44" fill="rgba(243,160,80,0.186)"/>
  <circle cx="8.35" cy="35.99" r="1.43" fill="rgba(243,160,80,0.189)"/>
  <circle cx="6.73" cy="35.21" r="1.42" fill="rgba(243,160,80,0.207)"/>
  <circle cx="5.63" cy="34.13" r="1.39" fill="rgba(243,160,80,0.240)"/>
  <circle cx="5.11" cy="32.86" r="1.35" fill="rgba(243,160,80,0.284)"/>
  <circle cx="5.17" cy="31.51" r="1.31" fill="rgba(243,160,80,0.337)"/>
  <circle cx="5.76" cy="30.19" r="1.27" fill="rgba(243,160,80,0.396)"/>
  <circle cx="4.06" cy="24.71" r="1.43" fill="rgba(243,160,80,0.188)"/>
  <circle cx="5.35" cy="23.61" r="1.38" fill="rgba(243,160,80,0.251)"/>
  <circle cx="7.02" cy="22.80" r="1.33" fill="rgba(243,160,80,0.315)"/>
  <circle cx="8.91" cy="22.30" r="1.28" fill="rgba(243,160,80,0.378)"/>
  <circle cx="10.92" cy="22.10" r="1.24" fill="rgba(243,160,80,0.433)"/>
  <circle cx="12.93" cy="22.18" r="1.21" fill="rgba(243,160,80,0.479)"/>
  <circle cx="14.87" cy="22.52" r="1.19" fill="rgba(243,160,80,0.513)"/>
  <circle cx="16.65" cy="23.10" r="1.18" fill="rgba(243,160,80,0.531)"/>
  <circle cx="18.21" cy="23.89" r="1.18" fill="rgba(243,160,80,0.534)"/>
  <circle cx="19.50" cy="24.85" r="1.19" fill="rgba(243,160,80,0.521)"/>
  <circle cx="20.45" cy="25.95" r="1.20" fill="rgba(243,160,80,0.492)"/>
  <circle cx="21.03" cy="27.16" r="1.23" fill="rgba(243,160,80,0.450)"/>
  <circle cx="21.16" cy="28.42" r="1.27" fill="rgba(243,160,80,0.397)"/>
  <circle cx="20.82" cy="29.68" r="1.31" fill="rgba(243,160,80,0.337)"/>
  <circle cx="19.96" cy="30.87" r="1.36" fill="rgba(243,160,80,0.273)"/>
  <circle cx="18.58" cy="31.90" r="1.42" fill="rgba(243,160,80,0.209)"/>
  <circle cx="16.72" cy="32.69" r="1.47" fill="rgba(243,160,80,0.149)"/>
  <circle cx="14.45" cy="33.15" r="1.52" fill="rgba(243,160,80,0.097)"/>
  <circle cx="11.94" cy="33.20" r="1.56" fill="rgba(243,160,80,0.056)"/>
  <circle cx="9.39" cy="32.80" r="1.59" fill="rgba(243,160,80,0.029)"/>
  <circle cx="7.03" cy="31.97" r="1.61" fill="rgba(243,160,80,0.017)"/>
  <circle cx="5.10" cy="30.77" r="1.60" fill="rgba(243,160,80,0.021)"/>
  <circle cx="3.76" cy="29.32" r="1.58" fill="rgba(243,160,80,0.041)"/>
  <circle cx="3.13" cy="27.77" r="1.54" fill="rgba(243,160,80,0.076)"/>
  <circle cx="3.20" cy="26.24" r="1.50" fill="rgba(243,160,80,0.123)"/>
  <circle cx="3.92" cy="24.87" r="1.44" fill="rgba(243,160,80,0.180)"/>
  <circle cx="4.08" cy="18.45" r="1.64" fill="rgba(243,160,80,-0.009)"/>
  <circle cx="5.55" cy="17.53" r="1.56" fill="rgba(243,160,80,0.056)"/>
  <circle cx="7.40" cy="17.05" r="1.49" fill="rgba(243,160,80,0.126)"/>
  <circle cx="9.48" cy="16.98" r="1.43" fill="rgba(243,160,80,0.196)"/>
  <circle cx="11.64" cy="17.27" r="1.37" fill="rgba(243,160,80,0.262)"/>
  <circle cx="13.76" cy="17.86" r="1.32" fill="rgba(243,160,80,0.321)"/>
  <circle cx="15.76" cy="18.71" r="1.29" fill="rgba(243,160,80,0.368)"/>
  <circle cx="17.57" cy="19.75" r="1.27" fill="rgba(243,160,80,0.400)"/>
  <circle cx="19.13" cy="20.95" r="1.26" fill="rgba(243,160,80,0.416)"/>
  <circle cx="20.41" cy="22.26" r="1.26" fill="rgba(243,160,80,0.415)"/>
  <circle cx="21.34" cy="23.63" r="1.27" fill="rgba(243,160,80,0.396)"/>
  <circle cx="21.90" cy="25.02" r="1.29" fill="rgba(243,160,80,0.360)"/>
  <circle cx="22.03" cy="26.37" r="1.33" fill="rgba(243,160,80,0.311)"/>
  <circle cx="21.69" cy="27.63" r="1.38" fill="rgba(243,160,80,0.251)"/>
  <circle cx="20.86" cy="28.72" r="1.44" fill="rgba(243,160,80,0.184)"/>
  <circle cx="19.50" cy="29.56" r="1.51" fill="rgba(243,160,80,0.113)"/>
  <circle cx="17.64" cy="30.05" r="1.58" fill="rgba(243,160,80,0.044)"/>
  <circle cx="15.34" cy="30.12" r="1.65" fill="rgba(243,160,80,-0.020)"/>
  <circle cx="12.72" cy="29.70" r="1.72" fill="rgba(243,160,80,-0.073)"/>
  <circle cx="10.00" cy="28.76" r="1.77" fill="rgba(243,160,80,-0.114)"/>
  <circle cx="7.42" cy="27.35" r="1.80" fill="rgba(243,160,80,-0.140)"/>
  <circle cx="5.26" cy="25.59" r="1.82" fill="rgba(243,160,80,-0.148)"/>
  <circle cx="3.74" cy="23.64" r="1.80" fill="rgba(243,160,80,-0.139)"/>
  <circle cx="3.02" cy="21.72" r="1.77" fill="rgba(243,160,80,-0.113)"/>
  <circle cx="3.10" cy="19.99" r="1.71" fill="rgba(243,160,80,-0.071)"/>
  <circle cx="3.92" cy="18.60" r="1.65" fill="rgba(243,160,80,-0.017)"/>
  <circle cx="6.79" cy="11.66" r="1.85" fill="rgba(243,160,80,-0.174)"/>
  <circle cx="8.28" cy="11.03" r="1.76" fill="rgba(243,160,80,-0.107)"/>
  <circle cx="10.14" cy="11.01" r="1.67" fill="rgba(243,160,80,-0.034)"/>
  <circle cx="12.18" cy="11.49" r="1.58" fill="rgba(243,160,80,0.044)"/>
  <circle cx="14.26" cy="12.38" r="1.50" fill="rgba(243,160,80,0.119)"/>
  <circle cx="16.26" cy="13.58" r="1.43" fill="rgba(243,160,80,0.188)"/>
  <circle cx="18.11" cy="14.99" r="1.38" fill="rgba(243,160,80,0.246)"/>
  <circle cx="19.76" cy="16.54" r="1.35" fill="rgba(243,160,80,0.290)"/>
  <circle cx="21.16" cy="18.18" r="1.33" fill="rgba(243,160,80,0.317)"/>
  <circle cx="22.29" cy="19.84" r="1.32" fill="rgba(243,160,80,0.325)"/>
  <circle cx="23.11" cy="21.48" r="1.33" fill="rgba(243,160,80,0.314)"/>
  <circle cx="23.59" cy="23.05" r="1.35" fill="rgba(243,160,80,0.285)"/>
  <circle cx="23.71" cy="24.49" r="1.39" fill="rgba(243,160,80,0.239)"/>
  <circle cx="23.42" cy="25.73" r="1.44" fill="rgba(243,160,80,0.179)"/>
  <circle cx="22.69" cy="26.72" r="1.51" fill="rgba(243,160,80,0.109)"/>
  <circle cx="21.49" cy="27.34" r="1.59" fill="rgba(243,160,80,0.033)"/>
  <circle cx="19.83" cy="27.52" r="1.68" fill="rgba(243,160,80,-0.044)"/>
  <circle cx="17.72" cy="27.16" r="1.77" fill="rgba(243,160,80,-0.117)"/>
  <circle cx="15.29" cy="26.20" r="1.87" fill="rgba(243,160,80,-0.182)"/>
  <circle cx="12.68" cy="24.62" r="1.95" fill="rgba(243,160,80,-0.234)"/>
  <circle cx="10.15" cy="22.50" r="2.01" fill="rgba(243,160,80,-0.271)"/>
  <circle cx="7.99" cy="20.03" r="2.05" fill="rgba(243,160,80,-0.290)"/>
  <circle cx="6.45" cy="17.47" r="2.05" fill="rgba(243,160,80,-0.290)"/>
  <circle cx="5.70" cy="15.09" r="2.01" fill="rgba(243,160,80,-0.271)"/>
  <circle cx="5.79" cy="13.15" r="1.95" fill="rgba(243,160,80,-0.234)"/>
  <circle cx="6.63" cy="11.79" r="1.87" fill="rgba(243,160,80,-0.182)"/>
  <circle cx="12.89" cy="5.29" r="2.06" fill="rgba(243,160,80,-0.297)"/>
  <circle cx="14.14" cy="5.01" r="1.94" fill="rgba(243,160,80,-0.229)"/>
  <circle cx="15.67" cy="5.50" r="1.82" fill="rgba(243,160,80,-0.152)"/>
  <circle cx="17.33" cy="6.58" r="1.71" fill="rgba(243,160,80,-0.070)"/>
  <circle cx="18.98" cy="8.09" r="1.61" fill="rgba(243,160,80,0.012)"/>
  <circle cx="20.55" cy="9.88" r="1.53" fill="rgba(243,160,80,0.089)"/>
  <circle cx="21.97" cy="11.84" r="1.46" fill="rgba(243,160,80,0.155)"/>
  <circle cx="23.22" cy="13.87" r="1.42" fill="rgba(243,160,80,0.208)"/>
  <circle cx="24.27" cy="15.89" r="1.39" fill="rgba(243,160,80,0.243)"/>
  <circle cx="25.11" cy="17.87" r="1.37" fill="rgba(243,160,80,0.259)"/>
  <circle cx="25.71" cy="19.74" r="1.38" fill="rgba(243,160,80,0.254)"/>
  <circle cx="26.07" cy="21.46" r="1.40" fill="rgba(243,160,80,0.229)"/>
  <circle cx="26.15" cy="22.97" r="1.44" fill="rgba(243,160,80,0.185)"/>
  <circle cx="25.94" cy="24.21" r="1.49" fill="rgba(243,160,80,0.125)"/>
  <circle cx="25.40" cy="25.09" r="1.57" fill="rgba(243,160,80,0.053)"/>
  <circle cx="24.52" cy="25.53" r="1.66" fill="rgba(243,160,80,-0.027)"/>
  <circle cx="23.27" cy="25.41" r="1.76" fill="rgba(243,160,80,-0.110)"/>
  <circle cx="21.68" cy="24.65" r="1.88" fill="rgba(243,160,80,-0.190)"/>
  <circle cx="19.79" cy="23.15" r="2.00" fill="rgba(243,160,80,-0.263)"/>
  <circle cx="17.73" cy="20.93" r="2.11" fill="rgba(243,160,80,-0.324)"/>
  <circle cx="15.68" cy="18.09" r="2.20" fill="rgba(243,160,80,-0.370)"/>
  <circle cx="13.90" cy="14.87" r="2.26" fill="rgba(243,160,80,-0.397)"/>
  <circle cx="12.60" cy="11.65" r="2.28" fill="rgba(243,160,80,-0.403)"/>
  <circle cx="11.97" cy="8.81" r="2.25" fill="rgba(243,160,80,-0.389)"/>
  <circle cx="12.04" cy="6.66" r="2.18" fill="rgba(243,160,80,-0.356)"/>
  <circle cx="12.76" cy="5.39" r="2.07" fill="rgba(243,160,80,-0.305)"/>
  <circle cx="22.33" cy="0.76" r="2.21" fill="rgba(243,160,80,-0.370)"/>
  <circle cx="23.00" cy="0.78" r="2.07" fill="rgba(243,160,80,-0.302)"/>
  <circle cx="23.82" cy="1.68" r="1.93" fill="rgba(243,160,80,-0.223)"/>
  <circle cx="24.70" cy="3.23" r="1.80" fill="rgba(243,160,80,-0.138)"/>
  <circle cx="25.56" cy="5.21" r="1.69" fill="rgba(243,160,80,-0.052)"/>
  <circle cx="26.37" cy="7.43" r="1.59" fill="rgba(243,160,80,0.029)"/>
  <circle cx="27.09" cy="9.78" r="1.52" fill="rgba(243,160,80,0.101)"/>
  <circle cx="27.72" cy="12.13" r="1.46" fill="rgba(243,160,80,0.159)"/>
  <circle cx="28.25" cy="14.43" r="1.42" fill="rgba(243,160,80,0.199)"/>
  <circle cx="28.66" cy="16.61" r="1.41" fill="rgba(243,160,80,0.219)"/>
  <circle cx="28.96" cy="18.64" r="1.41" fill="rgba(243,160,80,0.218)"/>
  <circle cx="29.14" cy="20.46" r="1.43" fill="rgba(243,160,80,0.195)"/>
  <circle cx="29.18" cy="22.01" r="1.47" fill="rgba(243,160,80,0.153)"/>
  <circle cx="29.07" cy="23.24" r="1.53" fill="rgba(243,160,80,0.093)"/>
  <circle cx="28.81" cy="24.06" r="1.60" fill="rgba(243,160,80,0.020)"/>
  <circle cx="28.37" cy="24.37" r="1.70" fill="rgba(243,160,80,-0.063)"/>
  <circle cx="27.75" cy="24.05" r="1.82" fill="rgba(243,160,80,-0.149)"/>
  <circle cx="26.94" cy="22.99" r="1.95" fill="rgba(243,160,80,-0.233)"/>
  <circle cx="25.97" cy="21.12" r="2.09" fill="rgba(243,160,80,-0.311)"/>
  <circle cx="24.91" cy="18.42" r="2.22" fill="rgba(243,160,80,-0.378)"/>
  <circle cx="23.83" cy="15.03" r="2.34" fill="rgba(243,160,80,-0.428)"/>
  <circle cx="22.87" cy="11.24" r="2.41" fill="rgba(243,160,80,-0.460)"/>
  <circle cx="22.18" cy="7.51" r="2.44" fill="rgba(243,160,80,-0.471)"/>
  <circle cx="21.83" cy="4.31" r="2.41" fill="rgba(243,160,80,-0.460)"/>
  <circle cx="21.87" cy="2.02" r="2.34" fill="rgba(243,160,80,-0.429)"/>
  <circle cx="22.26" cy="0.84" r="2.22" fill="rgba(243,160,80,-0.378)"/>
  <circle cx="33.76" cy="-0.54" r="2.25" fill="rgba(243,160,80,-0.390)"/>
  <circle cx="33.63" cy="-0.43" r="2.11" fill="rgba(243,160,80,-0.321)"/>
  <circle cx="33.48" cy="0.60" r="1.96" fill="rgba(243,160,80,-0.242)"/>
  <circle cx="33.32" cy="2.28" r="1.83" fill="rgba(243,160,80,-0.156)"/>
  <circle cx="33.16" cy="4.40" r="1.71" fill="rgba(243,160,80,-0.069)"/>
  <circle cx="33.02" cy="6.75" r="1.61" fill="rgba(243,160,80,0.014)"/>
  <circle cx="32.88" cy="9.21" r="1.53" fill="rgba(243,160,80,0.087)"/>
  <circle cx="32.77" cy="11.66" r="1.47" fill="rgba(243,160,80,0.146)"/>
  <circle cx="32.67" cy="14.03" r="1.43" fill="rgba(243,160,80,0.187)"/>
  <circle cx="32.60" cy="16.27" r="1.42" fill="rgba(243,160,80,0.209)"/>
  <circle cx="32.55" cy="18.34" r="1.42" fill="rgba(243,160,80,0.208)"/>
  <circle cx="32.51" cy="20.19" r="1.44" fill="rgba(243,160,80,0.186)"/>
  <circle cx="32.51" cy="21.75" r="1.47" fill="rgba(243,160,80,0.144)"/>
  <circle cx="32.52" cy="22.98" r="1.53" fill="rgba(243,160,80,0.084)"/>
  <circle cx="32.57" cy="23.78" r="1.61" fill="rgba(243,160,80,0.011)"/>
  <circle cx="32.65" cy="24.05" r="1.71" fill="rgba(243,160,80,-0.072)"/>
  <circle cx="32.76" cy="23.68" r="1.83" fill="rgba(243,160,80,-0.159)"/>
  <circle cx="32.91" cy="22.54" r="1.97" fill="rgba(243,160,80,-0.245)"/>
  <circle cx="33.09" cy="20.55" r="2.11" fill="rgba(243,160,80,-0.324)"/>
  <circle cx="33.28" cy="17.71" r="2.25" fill="rgba(243,160,80,-0.392)"/>
  <circle cx="33.48" cy="14.16" r="2.37" fill="rgba(243,160,80,-0.444)"/>
  <circle cx="33.66" cy="10.20" r="2.46" fill="rgba(243,160,80,-0.477)"/>
  <circle cx="33.79" cy="6.31" r="2.49" fill="rgba(243,160,80,-0.488)"/>
  <circle cx="33.85" cy="3.01" r="2.46" fill="rgba(243,160,80,-0.479)"/>
  <circle cx="33.84" cy="0.68" r="2.38" fill="rgba(243,160,80,-0.448)"/>
  <circle cx="33.77" cy="-0.47" r="2.26" fill="rgba(243,160,80,-0.397)"/>
  <circle cx="44.81" cy="1.84" r="2.17" fill="rgba(243,160,80,-0.354)"/>
  <circle cx="43.93" cy="1.78" r="2.04" fill="rgba(243,160,80,-0.286)"/>
  <circle cx="42.86" cy="2.58" r="1.91" fill="rgba(243,160,80,-0.207)"/>
  <circle cx="41.71" cy="4.01" r="1.78" fill="rgba(243,160,80,-0.123)"/>
  <circle cx="40.58" cy="5.88" r="1.67" fill="rgba(243,160,80,-0.038)"/>
  <circle cx="39.51" cy="8.00" r="1.58" fill="rgba(243,160,80,0.043)"/>
  <circle cx="38.55" cy="10.25" r="1.50" fill="rgba(243,160,80,0.113)"/>
  <circle cx="37.72" cy="12.53" r="1.45" fill="rgba(243,160,80,0.170)"/>
  <circle cx="37.02" cy="14.77" r="1.42" fill="rgba(243,160,80,0.209)"/>
  <circle cx="36.46" cy="16.90" r="1.40" fill="rgba(243,160,80,0.228)"/>
  <circle cx="36.07" cy="18.89" r="1.40" fill="rgba(243,160,80,0.226)"/>
  <circle cx="35.83" cy="20.69" r="1.42" fill="rgba(243,160,80,0.203)"/>
  <circle cx="35.78" cy="22.23" r="1.46" fill="rgba(243,160,80,0.160)"/>
  <circle cx="35.92" cy="23.46" r="1.52" fill="rgba(243,160,80,0.100)"/>
  <circle cx="36.27" cy="24.30" r="1.60" fill="rgba(243,160,80,0.027)"/>
  <circle cx="36.86" cy="24.63" r="1.69" fill="rgba(243,160,80,-0.055)"/>
  <circle cx="37.68" cy="24.36" r="1.81" fill="rgba(243,160,80,-0.140)"/>
  <circle cx="38.75" cy="23.38" r="1.93" fill="rgba(243,160,80,-0.224)"/>
  <circle cx="40.03" cy="21.59" r="2.07" fill="rgba(243,160,80,-0.300)"/>
  <circle cx="41.44" cy="19.01" r="2.20" fill="rgba(243,160,80,-0.366)"/>
  <circle cx="42.85" cy="15.75" r="2.30" fill="rgba(243,160,80,-0.415)"/>
  <circle cx="44.10" cy="12.10" r="2.38" fill="rgba(243,160,80,-0.446)"/>
  <circle cx="45.01" cy="8.49" r="2.40" fill="rgba(243,160,80,-0.456)"/>
  <circle cx="45.46" cy="5.38" r="2.37" fill="rgba(243,160,80,-0.444)"/>
  <circle cx="45.41" cy="3.13" r="2.30" fill="rgba(243,160,80,-0.412)"/>
  <circle cx="44.90" cy="1.92" r="2.19" fill="rgba(243,160,80,-0.362)"/>
  <circle cx="53.32" cy="7.08" r="2.00" fill="rgba(243,160,80,-0.265)"/>
  <circle cx="51.96" cy="6.70" r="1.89" fill="rgba(243,160,80,-0.198)"/>
  <circle cx="50.29" cy="7.03" r="1.78" fill="rgba(243,160,80,-0.121)"/>
  <circle cx="48.48" cy="7.94" r="1.67" fill="rgba(243,160,80,-0.041)"/>
  <circle cx="46.66" cy="9.27" r="1.58" fill="rgba(243,160,80,0.040)"/>
  <circle cx="44.92" cy="10.89" r="1.50" fill="rgba(243,160,80,0.114)"/>
  <circle cx="43.34" cy="12.70" r="1.44" fill="rgba(243,160,80,0.179)"/>
  <circle cx="41.94" cy="14.59" r="1.40" fill="rgba(243,160,80,0.229)"/>
  <circle cx="40.77" cy="16.51" r="1.37" fill="rgba(243,160,80,0.263)"/>
  <circle cx="39.83" cy="18.40" r="1.36" fill="rgba(243,160,80,0.276)"/>
  <circle cx="39.15" cy="20.21" r="1.36" fill="rgba(243,160,80,0.270)"/>
  <circle cx="38.75" cy="21.88" r="1.39" fill="rgba(243,160,80,0.243)"/>
  <circle cx="38.66" cy="23.37" r="1.42" fill="rgba(243,160,80,0.199)"/>
  <circle cx="38.90" cy="24.61" r="1.48" fill="rgba(243,160,80,0.139)"/>
  <circle cx="39.50" cy="25.53" r="1.55" fill="rgba(243,160,80,0.067)"/>
  <circle cx="40.49" cy="26.02" r="1.64" fill="rgba(243,160,80,-0.011)"/>
  <circle cx="41.89" cy="25.99" r="1.74" fill="rgba(243,160,80,-0.093)"/>
  <circle cx="43.67" cy="25.33" r="1.85" fill="rgba(243,160,80,-0.171)"/>
  <circle cx="45.77" cy="23.99" r="1.96" fill="rgba(243,160,80,-0.242)"/>
  <circle cx="48.04" cy="21.95" r="2.07" fill="rgba(243,160,80,-0.301)"/>
  <circle cx="50.28" cy="19.32" r="2.15" fill="rgba(243,160,80,-0.344)"/>
  <circle cx="52.23" cy="16.32" r="2.20" fill="rgba(243,160,80,-0.369)"/>
  <circle cx="53.63" cy="13.29" r="2.21" fill="rgba(243,160,80,-0.374)"/>
  <circle cx="54.32" cy="10.58" r="2.18" fill="rgba(243,160,80,-0.359)"/>
  <circle cx="54.24" cy="8.50" r="2.11" fill="rgba(243,160,80,-0.324)"/>
  <circle cx="53.47" cy="7.20" r="2.02" fill="rgba(243,160,80,-0.273)"/>
  <circle cx="58.36" cy="13.72" r="1.79" fill="rgba(243,160,80,-0.128)"/>
  <circle cx="56.85" cy="12.99" r="1.70" fill="rgba(243,160,80,-0.062)"/>
  <circle cx="54.97" cy="12.81" r="1.61" fill="rgba(243,160,80,0.011)"/>
  <circle cx="52.88" cy="13.12" r="1.53" fill="rgba(243,160,80,0.086)"/>
  <circle cx="50.75" cy="13.82" r="1.46" fill="rgba(243,160,80,0.159)"/>
  <circle cx="48.68" cy="14.83" r="1.40" fill="rgba(243,160,80,0.225)"/>
  <circle cx="46.75" cy="16.07" r="1.36" fill="rgba(243,160,80,0.280)"/>
  <circle cx="45.03" cy="17.47" r="1.32" fill="rgba(243,160,80,0.321)"/>
  <circle cx="43.56" cy="18.98" r="1.31" fill="rgba(243,160,80,0.345)"/>
  <circle cx="42.38" cy="20.54" r="1.30" fill="rgba(243,160,80,0.350)"/>
  <circle cx="41.52" cy="22.10" r="1.31" fill="rgba(243,160,80,0.337)"/>
  <circle cx="41.00" cy="23.61" r="1.34" fill="rgba(243,160,80,0.306)"/>
  <circle cx="40.88" cy="25.02" r="1.37" fill="rgba(243,160,80,0.259)"/>
  <circle cx="41.19" cy="26.27" r="1.42" fill="rgba(243,160,80,0.199)"/>
  <circle cx="41.96" cy="27.29" r="1.49" fill="rgba(243,160,80,0.129)"/>
  <circle cx="43.22" cy="27.98" r="1.56" fill="rgba(243,160,80,0.055)"/>
  <circle cx="44.97" cy="28.26" r="1.65" fill="rgba(243,160,80,-0.020)"/>
  <circle cx="47.16" cy="28.03" r="1.74" fill="rgba(243,160,80,-0.090)"/>
  <circle cx="49.69" cy="27.23" r="1.82" fill="rgba(243,160,80,-0.152)"/>
  <circle cx="52.37" cy="25.85" r="1.90" fill="rgba(243,160,80,-0.201)"/>
  <circle cx="54.95" cy="23.96" r="1.95" fill="rgba(243,160,80,-0.235)"/>
  <circle cx="57.15" cy="21.71" r="1.98" fill="rgba(243,160,80,-0.251)"/>
  <circle cx="58.71" cy="19.34" r="1.97" fill="rgba(243,160,80,-0.248)"/>
  <circle cx="59.46" cy="17.10" r="1.94" fill="rgba(243,160,80,-0.227)"/>
  <circle cx="59.37" cy="15.22" r="1.88" fill="rgba(243,160,80,-0.189)"/>
  <circle cx="58.52" cy="13.85" r="1.80" fill="rgba(243,160,80,-0.136)"/>
  <circle cx="60.17" cy="20.42" r="1.57" fill="rgba(243,160,80,0.048)"/>
  <circle cx="58.74" cy="19.43" r="1.51" fill="rgba(243,160,80,0.112)"/>
  <circle cx="56.93" cy="18.84" r="1.44" fill="rgba(243,160,80,0.180)"/>
  <circle cx="54.89" cy="18.62" r="1.38" fill="rgba(243,160,80,0.248)"/>
  <circle cx="52.76" cy="18.75" r="1.33" fill="rgba(243,160,80,0.311)"/>
  <circle cx="50.65" cy="19.18" r="1.29" fill="rgba(243,160,80,0.366)"/>
  <circle cx="48.65" cy="19.86" r="1.26" fill="rgba(243,160,80,0.409)"/>
  <circle cx="46.83" cy="20.76" r="1.24" fill="rgba(243,160,80,0.438)"/>
  <circle cx="45.26" cy="21.83" r="1.23" fill="rgba(243,160,80,0.450)"/>
  <circle cx="43.97" cy="23.03" r="1.24" fill="rgba(243,160,80,0.445)"/>
  <circle cx="43.02" cy="24.32" r="1.25" fill="rgba(243,160,80,0.423)"/>
  <circle cx="42.45" cy="25.65" r="1.28" fill="rgba(243,160,80,0.386)"/>
  <circle cx="42.32" cy="26.98" r="1.31" fill="rgba(243,160,80,0.336)"/>
  <circle cx="42.66" cy="28.24" r="1.36" fill="rgba(243,160,80,0.276)"/>
  <circle cx="43.51" cy="29.36" r="1.42" fill="rgba(243,160,80,0.209)"/>
  <circle cx="44.88" cy="30.26" r="1.48" fill="rgba(243,160,80,0.141)"/>
  <circle cx="46.76" cy="30.85" r="1.54" fill="rgba(243,160,80,0.074)"/>
  <circle cx="49.08" cy="31.04" r="1.61" fill="rgba(243,160,80,0.014)"/>
  <circle cx="51.68" cy="30.77" r="1.67" fill="rgba(243,160,80,-0.036)"/>
  <circle cx="54.38" cy="30.01" r="1.72" fill="rgba(243,160,80,-0.073)"/>
  <circle cx="56.92" cy="28.79" r="1.74" fill="rgba(243,160,80,-0.095)"/>
  <circle cx="59.03" cy="27.21" r="1.75" fill="rgba(243,160,80,-0.100)"/>
  <circle cx="60.50" cy="25.43" r="1.73" fill="rgba(243,160,80,-0.087)"/>
  <circle cx="61.20" cy="23.62" r="1.70" fill="rgba(243,160,80,-0.059)"/>
  <circle cx="61.12" cy="21.96" r="1.64" fill="rgba(243,160,80,-0.016)"/>
  <circle cx="60.32" cy="20.57" r="1.58" fill="rgba(243,160,80,0.040)"/>
  <circle cx="59.56" cy="26.41" r="1.38" fill="rgba(243,160,80,0.251)"/>
  <circle cx="58.32" cy="25.28" r="1.33" fill="rgba(243,160,80,0.314)"/>
  <circle cx="56.74" cy="24.40" r="1.28" fill="rgba(243,160,80,0.377)"/>
  <circle cx="54.92" cy="23.79" r="1.24" fill="rgba(243,160,80,0.436)"/>
  <circle cx="52.98" cy="23.47" r="1.21" fill="rgba(243,160,80,0.489)"/>
  <circle cx="51.03" cy="23.42" r="1.18" fill="rgba(243,160,80,0.531)"/>
  <circle cx="49.15" cy="23.64" r="1.16" fill="rgba(243,160,80,0.560)"/>
  <circle cx="47.41" cy="24.09" r="1.16" fill="rgba(243,160,80,0.574)"/>
  <circle cx="45.87" cy="24.76" r="1.16" fill="rgba(243,160,80,0.572)"/>
  <circle cx="44.60" cy="25.63" r="1.17" fill="rgba(243,160,80,0.555)"/>
  <circle cx="43.65" cy="26.65" r="1.19" fill="rgba(243,160,80,0.524)"/>
  <circle cx="43.08" cy="27.81" r="1.21" fill="rgba(243,160,80,0.479)"/>
  <circle cx="42.94" cy="29.04" r="1.25" fill="rgba(243,160,80,0.425)"/>
  <circle cx="43.29" cy="30.30" r="1.29" fill="rgba(243,160,80,0.365)"/>
  <circle cx="44.14" cy="31.52" r="1.34" fill="rgba(243,160,80,0.302)"/>
  <circle cx="45.50" cy="32.61" r="1.39" fill="rgba(243,160,80,0.240)"/>
  <circle cx="47.34" cy="33.47" r="1.44" fill="rgba(243,160,80,0.183)"/>
  <circle cx="49.55" cy="34.03" r="1.48" fill="rgba(243,160,80,0.134)"/>
  <circle cx="51.99" cy="34.20" r="1.52" fill="rgba(243,160,80,0.098)"/>
  <circle cx="54.46" cy="33.94" r="1.54" fill="rgba(243,160,80,0.075)"/>
  <circle cx="56.72" cy="33.25" r="1.55" fill="rgba(243,160,80,0.068)"/>
  <circle cx="58.57" cy="32.19" r="1.54" fill="rgba(243,160,80,0.076)"/>
  <circle cx="59.83" cy="30.87" r="1.52" fill="rgba(243,160,80,0.100)"/>
  <circle cx="60.43" cy="29.40" r="1.48" fill="rgba(243,160,80,0.137)"/>
  <circle cx="60.36" cy="27.94" r="1.44" fill="rgba(243,160,80,0.186)"/>
  <circle cx="59.69" cy="26.58" r="1.39" fill="rgba(243,160,80,0.243)"/>
  <circle cx="57.34" cy="31.41" r="1.22" fill="rgba(243,160,80,0.470)"/>
  <circle cx="56.33" cy="30.21" r="1.18" fill="rgba(243,160,80,0.531)"/>
  <circle cx="55.02" cy="29.15" r="1.15" fill="rgba(243,160,80,0.588)"/>
  <circle cx="53.49" cy="28.29" r="1.12" fill="rgba(243,160,80,0.639)"/>
  <circle cx="51.85" cy="27.66" r="1.10" fill="rgba(243,160,80,0.679)"/>
  <circle cx="50.15" cy="27.26" r="1.08" fill="rgba(243,160,80,0.708)"/>
  <circle cx="48.49" cy="27.10" r="1.08" fill="rgba(243,160,80,0.721)"/>
  <circle cx="46.93" cy="27.20" r="1.08" fill="rgba(243,160,80,0.720)"/>
  <circle cx="45.54" cy="27.54" r="1.08" fill="rgba(243,160,80,0.704)"/>
  <circle cx="44.36" cy="28.11" r="1.10" fill="rgba(243,160,80,0.674)"/>
  <circle cx="43.48" cy="28.91" r="1.12" fill="rgba(243,160,80,0.631)"/>
  <circle cx="42.95" cy="29.90" r="1.15" fill="rgba(243,160,80,0.580)"/>
  <circle cx="42.82" cy="31.04" r="1.19" fill="rgba(243,160,80,0.521)"/>
  <circle cx="43.14" cy="32.30" r="1.23" fill="rgba(243,160,80,0.461)"/>
  <circle cx="43.94" cy="33.59" r="1.27" fill="rgba(243,160,80,0.401)"/>
  <circle cx="45.20" cy="34.83" r="1.31" fill="rgba(243,160,80,0.346)"/>
  <circle cx="46.87" cy="35.93" r="1.34" fill="rgba(243,160,80,0.300)"/>
  <circle cx="48.85" cy="36.77" r="1.37" fill="rgba(243,160,80,0.264)"/>
  <circle cx="50.99" cy="37.27" r="1.39" fill="rgba(243,160,80,0.242)"/>
  <circle cx="53.11" cy="37.37" r="1.39" fill="rgba(243,160,80,0.235)"/>
  <circle cx="55.01" cy="37.07" r="1.39" fill="rgba(243,160,80,0.243)"/>
  <circle cx="56.53" cy="36.38" r="1.37" fill="rgba(243,160,80,0.265)"/>
  <circle cx="57.56" cy="35.39" r="1.34" fill="rgba(243,160,80,0.301)"/>
  <circle cx="58.05" cy="34.19" r="1.30" fill="rgba(243,160,80,0.348)"/>
  <circle cx="57.99" cy="32.89" r="1.26" fill="rgba(243,160,80,0.403)"/>
  <circle cx="57.44" cy="31.58" r="1.22" fill="rgba(243,160,80,0.462)"/>
  <rect width="64" height="64" fill="url(#glow)"/>
  <circle cx="32" cy="32" r="1.5" fill="rgba(255,200,140,0.4)"/>
</svg>